# xmcd
#
# Track frame offsets:
#        150
#        18667
#        33995
#
# Disc length: 700 seconds
#
# Revision: 0
# Processed by: cddbd v1.5.1PL0 Copyright (c) Steve Scherf et al.
# Submitted via: ExactAudioCopy v0.95a5
#
DISCID=1c02ba03
DTITLE=e.mu - Summer Day's Drive
DYEAR=2000
DGENRE=Rock
TTITLE0=Summer Day's Drive
TTITLE1=STAY
TTITLE2=Summer Day's Drive (voiceless version)
EXTD=
EXTT0=
EXTT1=
EXTT2=
PLAYORDER=
